<?xml version="1.0" standalone="no"?>
<!DOCTYPE svg PUBLIC "-//W3C//DTD SVG 20010904//EN"
 "http://www.w3.org/TR/2001/REC-SVG-20010904/DTD/svg10.dtd">
<svg version="1.0" xmlns="http://www.w3.org/2000/svg"
 width="256.000000pt" height="256.000000pt" viewBox="0 0 256.000000 256.000000"
 preserveAspectRatio="xMidYMid meet">
<metadata>
Created by potrace 1.14, written by Peter Selinger 2001-2017
</metadata>
<g transform="translate(0.000000,256.000000) scale(0.100000,-0.100000)"
fill="#000000" stroke="none">
<path d="M1130 2521 c-8 -6 -17 -8 -21 -5 -4 2 -38 -2 -76 -10 -302 -64 -567
-231 -748 -471 -71 -93 -122 -185 -175 -310 -95 -224 -102 -573 -19 -830 34
-105 94 -223 163 -325 62 -91 208 -240 296 -302 78 -55 231 -138 254 -138 9 0
16 -5 16 -10 0 -6 3 -9 8 -8 4 0 14 -1 22 -4 72 -28 186 -54 293 -68 68 -9
263 -7 307 3 8 2 38 8 65 12 28 5 52 10 55 10 291 69 579 268 745 516 94 140
178 346 199 489 12 76 16 333 7 375 -5 22 -12 58 -15 81 -7 58 -60 218 -97
294 -48 100 -110 193 -181 274 -92 105 -164 169 -273 238 -73 47 -216 118
-238 118 -7 0 -17 4 -23 9 -9 8 -138 44 -204 56 -59 11 -344 15 -360 6z"/>
</g>
</svg>
